<mxfile host="app.diagrams.net" modified="2023-08-02T05:23:03.993Z" agent="Mozilla/5.0 (Windows NT 10.0; Win64; x64) AppleWebKit/537.36 (KHTML, like Gecko) Chrome/115.0.0.0 Safari/537.36" etag="kiVNxpHDDZ0ZqmRf0bln" version="21.6.6" type="device">
  <diagram name="Page-1" id="JvsaflJrgkdJmpyMRwTx">
    <mxGraphModel dx="978" dy="496" grid="1" gridSize="10" guides="1" tooltips="1" connect="1" arrows="1" fold="1" page="1" pageScale="1" pageWidth="850" pageHeight="1100" background="none" math="0" shadow="0">
      <root>
        <mxCell id="0" />
        <mxCell id="1" parent="0" />
        <mxCell id="O7h32KgBPFnIIj5nMblH-4" value="" style="edgeStyle=orthogonalEdgeStyle;rounded=0;orthogonalLoop=1;jettySize=auto;html=1;fontSize=16;" parent="1" source="O7h32KgBPFnIIj5nMblH-1" target="O7h32KgBPFnIIj5nMblH-3" edge="1">
          <mxGeometry relative="1" as="geometry" />
        </mxCell>
        <mxCell id="O7h32KgBPFnIIj5nMblH-1" value="&lt;font style=&quot;font-size: 16px;&quot;&gt;Start&lt;/font&gt;" style="ellipse;whiteSpace=wrap;html=1;fontSize=16;" parent="1" vertex="1">
          <mxGeometry x="270" y="70" width="80" height="40" as="geometry" />
        </mxCell>
        <mxCell id="O7h32KgBPFnIIj5nMblH-6" value="" style="edgeStyle=orthogonalEdgeStyle;rounded=0;orthogonalLoop=1;jettySize=auto;html=1;fontSize=16;" parent="1" source="O7h32KgBPFnIIj5nMblH-3" target="O7h32KgBPFnIIj5nMblH-5" edge="1">
          <mxGeometry relative="1" as="geometry" />
        </mxCell>
        <mxCell id="O7h32KgBPFnIIj5nMblH-3" value="Logged in" style="whiteSpace=wrap;html=1;fontSize=16;" parent="1" vertex="1">
          <mxGeometry x="265" y="141.5" width="90" height="40" as="geometry" />
        </mxCell>
        <mxCell id="2t2oSGuNZaes5AwXjSXp-73" style="edgeStyle=orthogonalEdgeStyle;rounded=0;orthogonalLoop=1;jettySize=auto;html=1;exitX=0.5;exitY=1;exitDx=0;exitDy=0;entryX=0.5;entryY=0;entryDx=0;entryDy=0;fontSize=16;" edge="1" parent="1" source="O7h32KgBPFnIIj5nMblH-5" target="O7h32KgBPFnIIj5nMblH-10">
          <mxGeometry relative="1" as="geometry" />
        </mxCell>
        <mxCell id="O7h32KgBPFnIIj5nMblH-5" value="Click on an event" style="whiteSpace=wrap;html=1;fontSize=16;" parent="1" vertex="1">
          <mxGeometry x="260" y="218" width="100" height="40" as="geometry" />
        </mxCell>
        <mxCell id="O7h32KgBPFnIIj5nMblH-26" value="" style="edgeStyle=orthogonalEdgeStyle;rounded=0;orthogonalLoop=1;jettySize=auto;html=1;fontSize=16;" parent="1" source="O7h32KgBPFnIIj5nMblH-10" target="O7h32KgBPFnIIj5nMblH-25" edge="1">
          <mxGeometry relative="1" as="geometry" />
        </mxCell>
        <mxCell id="O7h32KgBPFnIIj5nMblH-24" value="Edit and Alt Text is an option. But you can proceed without using these option" style="shape=tape;whiteSpace=wrap;html=1;size=0.2;fontSize=16;" parent="1" vertex="1">
          <mxGeometry x="120" y="274" width="140" height="140" as="geometry" />
        </mxCell>
        <mxCell id="O7h32KgBPFnIIj5nMblH-29" value="" style="edgeStyle=orthogonalEdgeStyle;rounded=0;orthogonalLoop=1;jettySize=auto;html=1;fontSize=16;" parent="1" source="O7h32KgBPFnIIj5nMblH-25" target="O7h32KgBPFnIIj5nMblH-28" edge="1">
          <mxGeometry relative="1" as="geometry" />
        </mxCell>
        <mxCell id="2t2oSGuNZaes5AwXjSXp-74" style="edgeStyle=orthogonalEdgeStyle;rounded=0;orthogonalLoop=1;jettySize=auto;html=1;exitX=1;exitY=0.5;exitDx=0;exitDy=0;fontSize=16;" edge="1" parent="1" source="O7h32KgBPFnIIj5nMblH-25">
          <mxGeometry relative="1" as="geometry">
            <mxPoint x="360" y="340" as="targetPoint" />
            <Array as="points">
              <mxPoint x="360" y="498" />
              <mxPoint x="360" y="400" />
              <mxPoint x="361" y="400" />
            </Array>
          </mxGeometry>
        </mxCell>
        <mxCell id="O7h32KgBPFnIIj5nMblH-25" value="Change photo" style="rhombus;whiteSpace=wrap;html=1;fontSize=16;" parent="1" vertex="1">
          <mxGeometry x="265" y="450" width="90" height="88" as="geometry" />
        </mxCell>
        <mxCell id="2t2oSGuNZaes5AwXjSXp-75" style="edgeStyle=orthogonalEdgeStyle;rounded=0;orthogonalLoop=1;jettySize=auto;html=1;exitX=0.5;exitY=1;exitDx=0;exitDy=0;entryX=0.5;entryY=0;entryDx=0;entryDy=0;fontSize=16;" edge="1" parent="1" source="O7h32KgBPFnIIj5nMblH-28" target="O7h32KgBPFnIIj5nMblH-32">
          <mxGeometry relative="1" as="geometry" />
        </mxCell>
        <mxCell id="O7h32KgBPFnIIj5nMblH-28" value="Apply and proceed" style="whiteSpace=wrap;html=1;fontSize=16;" parent="1" vertex="1">
          <mxGeometry x="250" y="587" width="120" height="43" as="geometry" />
        </mxCell>
        <mxCell id="2t2oSGuNZaes5AwXjSXp-82" style="edgeStyle=orthogonalEdgeStyle;rounded=0;orthogonalLoop=1;jettySize=auto;html=1;exitX=0;exitY=0.5;exitDx=0;exitDy=0;entryX=0.567;entryY=-0.017;entryDx=0;entryDy=0;entryPerimeter=0;fontSize=16;" edge="1" parent="1" source="O7h32KgBPFnIIj5nMblH-32" target="O7h32KgBPFnIIj5nMblH-36">
          <mxGeometry relative="1" as="geometry" />
        </mxCell>
        <mxCell id="2t2oSGuNZaes5AwXjSXp-83" style="edgeStyle=orthogonalEdgeStyle;rounded=0;orthogonalLoop=1;jettySize=auto;html=1;exitX=1;exitY=0.5;exitDx=0;exitDy=0;entryX=0.25;entryY=0;entryDx=0;entryDy=0;fontSize=16;" edge="1" parent="1" source="O7h32KgBPFnIIj5nMblH-32" target="O7h32KgBPFnIIj5nMblH-37">
          <mxGeometry relative="1" as="geometry" />
        </mxCell>
        <mxCell id="O7h32KgBPFnIIj5nMblH-32" value="Event Type" style="rhombus;whiteSpace=wrap;html=1;fontSize=16;" parent="1" vertex="1">
          <mxGeometry x="270" y="670" width="80" height="80" as="geometry" />
        </mxCell>
        <mxCell id="2t2oSGuNZaes5AwXjSXp-84" style="edgeStyle=orthogonalEdgeStyle;rounded=0;orthogonalLoop=1;jettySize=auto;html=1;exitX=0.5;exitY=1;exitDx=0;exitDy=0;fontSize=16;" edge="1" parent="1" source="O7h32KgBPFnIIj5nMblH-36">
          <mxGeometry relative="1" as="geometry">
            <mxPoint x="220" y="880" as="targetPoint" />
          </mxGeometry>
        </mxCell>
        <mxCell id="O7h32KgBPFnIIj5nMblH-36" value="Online" style="rounded=1;whiteSpace=wrap;html=1;fontSize=16;" parent="1" vertex="1">
          <mxGeometry x="170" y="800" width="100" height="30" as="geometry" />
        </mxCell>
        <mxCell id="2t2oSGuNZaes5AwXjSXp-85" style="edgeStyle=orthogonalEdgeStyle;rounded=0;orthogonalLoop=1;jettySize=auto;html=1;exitX=0.5;exitY=1;exitDx=0;exitDy=0;fontSize=16;" edge="1" parent="1" source="O7h32KgBPFnIIj5nMblH-37">
          <mxGeometry relative="1" as="geometry">
            <mxPoint x="395" y="880" as="targetPoint" />
          </mxGeometry>
        </mxCell>
        <mxCell id="O7h32KgBPFnIIj5nMblH-37" value="Onsite" style="rounded=1;whiteSpace=wrap;html=1;fontSize=16;" parent="1" vertex="1">
          <mxGeometry x="350" y="800" width="90" height="30" as="geometry" />
        </mxCell>
        <mxCell id="O7h32KgBPFnIIj5nMblH-49" value="" style="edgeStyle=none;rounded=0;orthogonalLoop=1;jettySize=auto;html=1;fontSize=16;" parent="1" source="O7h32KgBPFnIIj5nMblH-46" target="O7h32KgBPFnIIj5nMblH-48" edge="1">
          <mxGeometry relative="1" as="geometry" />
        </mxCell>
        <mxCell id="O7h32KgBPFnIIj5nMblH-46" value="&lt;font style=&quot;font-size: 16px;&quot;&gt;Time Zone Selection&lt;/font&gt;" style="whiteSpace=wrap;html=1;fontSize=16;" parent="1" vertex="1">
          <mxGeometry x="250" y="970" width="120" height="40" as="geometry" />
        </mxCell>
        <mxCell id="2t2oSGuNZaes5AwXjSXp-45" value="" style="edgeStyle=orthogonalEdgeStyle;rounded=0;orthogonalLoop=1;jettySize=auto;html=1;fontSize=16;" edge="1" parent="1" source="O7h32KgBPFnIIj5nMblH-48" target="2t2oSGuNZaes5AwXjSXp-44">
          <mxGeometry relative="1" as="geometry" />
        </mxCell>
        <mxCell id="O7h32KgBPFnIIj5nMblH-48" value="Start Date" style="whiteSpace=wrap;html=1;fontSize=16;" parent="1" vertex="1">
          <mxGeometry x="263.13" y="1040" width="93.75" height="40" as="geometry" />
        </mxCell>
        <mxCell id="2t2oSGuNZaes5AwXjSXp-5" value="" style="edgeStyle=orthogonalEdgeStyle;rounded=0;orthogonalLoop=1;jettySize=auto;html=1;fontSize=16;" edge="1" parent="1" source="O7h32KgBPFnIIj5nMblH-50" target="2t2oSGuNZaes5AwXjSXp-4">
          <mxGeometry relative="1" as="geometry" />
        </mxCell>
        <mxCell id="2t2oSGuNZaes5AwXjSXp-7" value="" style="edgeStyle=orthogonalEdgeStyle;rounded=0;orthogonalLoop=1;jettySize=auto;html=1;fontSize=16;" edge="1" parent="1" source="O7h32KgBPFnIIj5nMblH-50" target="2t2oSGuNZaes5AwXjSXp-6">
          <mxGeometry relative="1" as="geometry" />
        </mxCell>
        <mxCell id="O7h32KgBPFnIIj5nMblH-50" value="Add End Date/Time" style="rhombus;whiteSpace=wrap;html=1;fontSize=16;" parent="1" vertex="1">
          <mxGeometry x="261.87" y="1185" width="100.01" height="90" as="geometry" />
        </mxCell>
        <mxCell id="2t2oSGuNZaes5AwXjSXp-90" style="edgeStyle=orthogonalEdgeStyle;rounded=0;orthogonalLoop=1;jettySize=auto;html=1;exitX=0.5;exitY=1;exitDx=0;exitDy=0;entryX=0.5;entryY=0;entryDx=0;entryDy=0;fontSize=16;" edge="1" parent="1" source="2t2oSGuNZaes5AwXjSXp-1" target="O7h32KgBPFnIIj5nMblH-46">
          <mxGeometry relative="1" as="geometry" />
        </mxCell>
        <mxCell id="2t2oSGuNZaes5AwXjSXp-1" value="&lt;font style=&quot;font-size: 16px;&quot;&gt;Event Name&lt;/font&gt;" style="rounded=1;whiteSpace=wrap;html=1;fontSize=16;" vertex="1" parent="1">
          <mxGeometry x="260" y="910" width="100" height="32" as="geometry" />
        </mxCell>
        <mxCell id="2t2oSGuNZaes5AwXjSXp-2" value="Multiple time zones can be selected through the drop down" style="shape=tape;whiteSpace=wrap;html=1;size=0.2;fontSize=16;" vertex="1" parent="1">
          <mxGeometry x="80" y="942" width="130" height="130" as="geometry" />
        </mxCell>
        <mxCell id="2t2oSGuNZaes5AwXjSXp-3" value="Date is selected from calendar and time for specified time slots in drop down" style="shape=tape;whiteSpace=wrap;html=1;size=0.2;fontSize=16;" vertex="1" parent="1">
          <mxGeometry x="50" y="1160" width="140" height="150" as="geometry" />
        </mxCell>
        <mxCell id="2t2oSGuNZaes5AwXjSXp-8" style="edgeStyle=orthogonalEdgeStyle;rounded=0;orthogonalLoop=1;jettySize=auto;html=1;entryX=0.5;entryY=1;entryDx=0;entryDy=0;exitX=1;exitY=0.5;exitDx=0;exitDy=0;fontSize=16;" edge="1" parent="1" source="2t2oSGuNZaes5AwXjSXp-46" target="2t2oSGuNZaes5AwXjSXp-6">
          <mxGeometry relative="1" as="geometry">
            <mxPoint x="1060" y="1330" as="targetPoint" />
            <mxPoint x="960" y="1600" as="sourcePoint" />
            <Array as="points">
              <mxPoint x="450" y="1473" />
            </Array>
          </mxGeometry>
        </mxCell>
        <mxCell id="2t2oSGuNZaes5AwXjSXp-93" style="edgeStyle=orthogonalEdgeStyle;rounded=0;orthogonalLoop=1;jettySize=auto;html=1;exitX=0.5;exitY=1;exitDx=0;exitDy=0;fontSize=16;" edge="1" parent="1" source="2t2oSGuNZaes5AwXjSXp-4" target="2t2oSGuNZaes5AwXjSXp-46">
          <mxGeometry relative="1" as="geometry" />
        </mxCell>
        <mxCell id="2t2oSGuNZaes5AwXjSXp-4" value="End Date/Time slot" style="rounded=1;whiteSpace=wrap;html=1;fontSize=16;" vertex="1" parent="1">
          <mxGeometry x="255.01999999999998" y="1300" width="109.99" height="50" as="geometry" />
        </mxCell>
        <mxCell id="2t2oSGuNZaes5AwXjSXp-13" value="" style="edgeStyle=orthogonalEdgeStyle;rounded=0;orthogonalLoop=1;jettySize=auto;html=1;fontSize=16;" edge="1" parent="1" source="2t2oSGuNZaes5AwXjSXp-6" target="2t2oSGuNZaes5AwXjSXp-12">
          <mxGeometry relative="1" as="geometry" />
        </mxCell>
        <mxCell id="2t2oSGuNZaes5AwXjSXp-6" value="External Event Link" style="rounded=1;whiteSpace=wrap;html=1;fontSize=16;" vertex="1" parent="1">
          <mxGeometry x="390" y="1200" width="120" height="60" as="geometry" />
        </mxCell>
        <mxCell id="2t2oSGuNZaes5AwXjSXp-15" value="" style="edgeStyle=orthogonalEdgeStyle;rounded=0;orthogonalLoop=1;jettySize=auto;html=1;fontSize=16;" edge="1" parent="1" source="2t2oSGuNZaes5AwXjSXp-12" target="2t2oSGuNZaes5AwXjSXp-14">
          <mxGeometry relative="1" as="geometry" />
        </mxCell>
        <mxCell id="2t2oSGuNZaes5AwXjSXp-12" value="&lt;font style=&quot;font-size: 16px;&quot;&gt;Description&lt;/font&gt;" style="rounded=1;whiteSpace=wrap;html=1;fontSize=16;" vertex="1" parent="1">
          <mxGeometry x="580" y="1130" width="100" height="50" as="geometry" />
        </mxCell>
        <mxCell id="2t2oSGuNZaes5AwXjSXp-17" value="" style="edgeStyle=orthogonalEdgeStyle;rounded=0;orthogonalLoop=1;jettySize=auto;html=1;fontSize=16;" edge="1" parent="1" source="2t2oSGuNZaes5AwXjSXp-14" target="2t2oSGuNZaes5AwXjSXp-16">
          <mxGeometry relative="1" as="geometry" />
        </mxCell>
        <mxCell id="2t2oSGuNZaes5AwXjSXp-14" value="Add Speaker" style="rounded=1;whiteSpace=wrap;html=1;fontSize=16;" vertex="1" parent="1">
          <mxGeometry x="580" y="1020" width="100" height="40" as="geometry" />
        </mxCell>
        <mxCell id="2t2oSGuNZaes5AwXjSXp-19" value="" style="edgeStyle=orthogonalEdgeStyle;rounded=0;orthogonalLoop=1;jettySize=auto;html=1;fontSize=16;" edge="1" parent="1" source="2t2oSGuNZaes5AwXjSXp-16" target="2t2oSGuNZaes5AwXjSXp-18">
          <mxGeometry relative="1" as="geometry" />
        </mxCell>
        <mxCell id="2t2oSGuNZaes5AwXjSXp-21" value="" style="edgeStyle=orthogonalEdgeStyle;rounded=0;orthogonalLoop=1;jettySize=auto;html=1;fontSize=16;" edge="1" parent="1" source="2t2oSGuNZaes5AwXjSXp-16" target="2t2oSGuNZaes5AwXjSXp-20">
          <mxGeometry relative="1" as="geometry" />
        </mxCell>
        <mxCell id="2t2oSGuNZaes5AwXjSXp-16" value="LinkedIN ID Existence" style="rhombus;whiteSpace=wrap;html=1;rounded=1;fontSize=16;" vertex="1" parent="1">
          <mxGeometry x="685" y="870" width="105" height="105.5" as="geometry" />
        </mxCell>
        <mxCell id="2t2oSGuNZaes5AwXjSXp-95" style="edgeStyle=orthogonalEdgeStyle;rounded=0;orthogonalLoop=1;jettySize=auto;html=1;fontSize=16;" edge="1" parent="1" source="2t2oSGuNZaes5AwXjSXp-18">
          <mxGeometry relative="1" as="geometry">
            <mxPoint x="735" y="710" as="targetPoint" />
          </mxGeometry>
        </mxCell>
        <mxCell id="2t2oSGuNZaes5AwXjSXp-18" value="Speaker Added" style="whiteSpace=wrap;html=1;rounded=1;fontSize=16;" vertex="1" parent="1">
          <mxGeometry x="682.5" y="792.5" width="105" height="45" as="geometry" />
        </mxCell>
        <mxCell id="2t2oSGuNZaes5AwXjSXp-105" style="edgeStyle=elbowEdgeStyle;rounded=0;orthogonalLoop=1;jettySize=auto;html=1;exitX=0.5;exitY=0;exitDx=0;exitDy=0;" edge="1" parent="1" source="2t2oSGuNZaes5AwXjSXp-20">
          <mxGeometry relative="1" as="geometry">
            <mxPoint x="605" y="710" as="targetPoint" />
          </mxGeometry>
        </mxCell>
        <mxCell id="2t2oSGuNZaes5AwXjSXp-20" value="Speaker is not added" style="whiteSpace=wrap;html=1;rounded=1;fontSize=16;" vertex="1" parent="1">
          <mxGeometry x="555" y="895.75" width="100" height="54" as="geometry" />
        </mxCell>
        <mxCell id="2t2oSGuNZaes5AwXjSXp-24" value="" style="endArrow=none;html=1;rounded=0;fontSize=16;" edge="1" parent="1">
          <mxGeometry width="50" height="50" relative="1" as="geometry">
            <mxPoint x="600" y="710" as="sourcePoint" />
            <mxPoint x="735" y="709.5" as="targetPoint" />
          </mxGeometry>
        </mxCell>
        <mxCell id="2t2oSGuNZaes5AwXjSXp-31" value="" style="edgeStyle=orthogonalEdgeStyle;rounded=0;orthogonalLoop=1;jettySize=auto;html=1;fontSize=16;" edge="1" parent="1" source="2t2oSGuNZaes5AwXjSXp-27" target="2t2oSGuNZaes5AwXjSXp-30">
          <mxGeometry relative="1" as="geometry" />
        </mxCell>
        <mxCell id="2t2oSGuNZaes5AwXjSXp-102" style="edgeStyle=elbowEdgeStyle;rounded=0;orthogonalLoop=1;jettySize=auto;html=1;exitX=0;exitY=0.5;exitDx=0;exitDy=0;entryX=1;entryY=0.5;entryDx=0;entryDy=0;fontSize=16;" edge="1" parent="1" source="2t2oSGuNZaes5AwXjSXp-27" target="2t2oSGuNZaes5AwXjSXp-1">
          <mxGeometry relative="1" as="geometry" />
        </mxCell>
        <mxCell id="2t2oSGuNZaes5AwXjSXp-27" value="Mandatory fields filled valid" style="rhombus;whiteSpace=wrap;html=1;fontSize=16;" vertex="1" parent="1">
          <mxGeometry x="600" y="555" width="150" height="115" as="geometry" />
        </mxCell>
        <mxCell id="2t2oSGuNZaes5AwXjSXp-50" value="" style="edgeStyle=orthogonalEdgeStyle;rounded=0;orthogonalLoop=1;jettySize=auto;html=1;fontSize=16;" edge="1" parent="1" source="2t2oSGuNZaes5AwXjSXp-30" target="2t2oSGuNZaes5AwXjSXp-49">
          <mxGeometry relative="1" as="geometry" />
        </mxCell>
        <mxCell id="2t2oSGuNZaes5AwXjSXp-52" value="" style="edgeStyle=orthogonalEdgeStyle;rounded=0;orthogonalLoop=1;jettySize=auto;html=1;fontSize=16;" edge="1" parent="1" source="2t2oSGuNZaes5AwXjSXp-30" target="2t2oSGuNZaes5AwXjSXp-51">
          <mxGeometry relative="1" as="geometry" />
        </mxCell>
        <mxCell id="2t2oSGuNZaes5AwXjSXp-30" value="Proceed&amp;nbsp;" style="whiteSpace=wrap;html=1;fontSize=16;" vertex="1" parent="1">
          <mxGeometry x="615" y="450" width="120" height="60" as="geometry" />
        </mxCell>
        <mxCell id="2t2oSGuNZaes5AwXjSXp-92" style="edgeStyle=orthogonalEdgeStyle;rounded=0;orthogonalLoop=1;jettySize=auto;html=1;exitX=0.5;exitY=1;exitDx=0;exitDy=0;entryX=0.5;entryY=0;entryDx=0;entryDy=0;fontSize=16;" edge="1" parent="1" source="2t2oSGuNZaes5AwXjSXp-44" target="O7h32KgBPFnIIj5nMblH-50">
          <mxGeometry relative="1" as="geometry" />
        </mxCell>
        <mxCell id="2t2oSGuNZaes5AwXjSXp-44" value="Start Time slot" style="rounded=1;whiteSpace=wrap;html=1;fontSize=16;" vertex="1" parent="1">
          <mxGeometry x="258.13" y="1120" width="103.75" height="40" as="geometry" />
        </mxCell>
        <mxCell id="2t2oSGuNZaes5AwXjSXp-48" style="edgeStyle=orthogonalEdgeStyle;rounded=0;orthogonalLoop=1;jettySize=auto;html=1;exitX=0;exitY=0.5;exitDx=0;exitDy=0;entryX=0;entryY=0.5;entryDx=0;entryDy=0;fontSize=16;" edge="1" parent="1" source="2t2oSGuNZaes5AwXjSXp-46" target="2t2oSGuNZaes5AwXjSXp-4">
          <mxGeometry relative="1" as="geometry" />
        </mxCell>
        <mxCell id="2t2oSGuNZaes5AwXjSXp-46" value="Duration&amp;gt;15 min" style="rhombus;whiteSpace=wrap;html=1;fontSize=16;" vertex="1" parent="1">
          <mxGeometry x="238.76" y="1410" width="142.49" height="130" as="geometry" />
        </mxCell>
        <mxCell id="2t2oSGuNZaes5AwXjSXp-57" value="" style="edgeStyle=elbowEdgeStyle;rounded=0;orthogonalLoop=1;jettySize=auto;html=1;fontSize=16;" edge="1" parent="1" source="2t2oSGuNZaes5AwXjSXp-49" target="2t2oSGuNZaes5AwXjSXp-56">
          <mxGeometry relative="1" as="geometry" />
        </mxCell>
        <mxCell id="2t2oSGuNZaes5AwXjSXp-49" value="Add some description about event" style="rounded=1;whiteSpace=wrap;html=1;fontSize=16;" vertex="1" parent="1">
          <mxGeometry x="770" y="450" width="120" height="60" as="geometry" />
        </mxCell>
        <mxCell id="2t2oSGuNZaes5AwXjSXp-55" style="edgeStyle=elbowEdgeStyle;rounded=0;orthogonalLoop=1;jettySize=auto;html=1;exitX=0;exitY=0.5;exitDx=0;exitDy=0;entryX=1;entryY=0.5;entryDx=0;entryDy=0;fontSize=16;" edge="1" parent="1" source="2t2oSGuNZaes5AwXjSXp-51" target="O7h32KgBPFnIIj5nMblH-10">
          <mxGeometry relative="1" as="geometry" />
        </mxCell>
        <mxCell id="2t2oSGuNZaes5AwXjSXp-61" style="edgeStyle=orthogonalEdgeStyle;rounded=0;orthogonalLoop=1;jettySize=auto;html=1;exitX=1;exitY=0.5;exitDx=0;exitDy=0;entryX=0.5;entryY=0;entryDx=0;entryDy=0;fontSize=16;" edge="1" parent="1" source="2t2oSGuNZaes5AwXjSXp-51" target="2t2oSGuNZaes5AwXjSXp-56">
          <mxGeometry relative="1" as="geometry" />
        </mxCell>
        <mxCell id="2t2oSGuNZaes5AwXjSXp-51" value="Edit" style="rhombus;whiteSpace=wrap;html=1;fontSize=16;" vertex="1" parent="1">
          <mxGeometry x="635" y="304" width="80" height="80" as="geometry" />
        </mxCell>
        <mxCell id="2t2oSGuNZaes5AwXjSXp-59" style="edgeStyle=elbowEdgeStyle;rounded=0;orthogonalLoop=1;jettySize=auto;html=1;exitX=1;exitY=0.5;exitDx=0;exitDy=0;entryX=0;entryY=0.5;entryDx=0;entryDy=0;fontSize=16;" edge="1" parent="1" source="2t2oSGuNZaes5AwXjSXp-56" target="2t2oSGuNZaes5AwXjSXp-58">
          <mxGeometry relative="1" as="geometry" />
        </mxCell>
        <mxCell id="2t2oSGuNZaes5AwXjSXp-56" value="Post" style="whiteSpace=wrap;html=1;rounded=1;fontSize=16;" vertex="1" parent="1">
          <mxGeometry x="920" y="455" width="90" height="50" as="geometry" />
        </mxCell>
        <mxCell id="2t2oSGuNZaes5AwXjSXp-58" value="End" style="ellipse;whiteSpace=wrap;html=1;fontSize=16;" vertex="1" parent="1">
          <mxGeometry x="1040" y="452" width="90" height="58" as="geometry" />
        </mxCell>
        <mxCell id="2t2oSGuNZaes5AwXjSXp-62" value="NO" style="text;html=1;align=center;verticalAlign=middle;resizable=0;points=[];autosize=1;strokeColor=none;fillColor=none;fontSize=16;" vertex="1" parent="1">
          <mxGeometry x="175" y="1370" width="50" height="30" as="geometry" />
        </mxCell>
        <mxCell id="2t2oSGuNZaes5AwXjSXp-63" value="YES" style="text;html=1;align=center;verticalAlign=middle;resizable=0;points=[];autosize=1;strokeColor=none;fillColor=none;fontSize=16;" vertex="1" parent="1">
          <mxGeometry x="385" y="1360" width="60" height="30" as="geometry" />
        </mxCell>
        <mxCell id="2t2oSGuNZaes5AwXjSXp-64" value="YES" style="text;html=1;align=center;verticalAlign=middle;resizable=0;points=[];autosize=1;strokeColor=none;fillColor=none;fontSize=16;" vertex="1" parent="1">
          <mxGeometry x="367.5" y="410" width="60" height="30" as="geometry" />
        </mxCell>
        <mxCell id="2t2oSGuNZaes5AwXjSXp-65" value="NO" style="text;html=1;align=center;verticalAlign=middle;resizable=0;points=[];autosize=1;strokeColor=none;fillColor=none;fontSize=16;" vertex="1" parent="1">
          <mxGeometry x="320.01" y="535" width="50" height="30" as="geometry" />
        </mxCell>
        <mxCell id="2t2oSGuNZaes5AwXjSXp-66" value="NO" style="text;html=1;align=center;verticalAlign=middle;resizable=0;points=[];autosize=1;strokeColor=none;fillColor=none;fontSize=16;" vertex="1" parent="1">
          <mxGeometry x="655" y="869" width="50" height="30" as="geometry" />
        </mxCell>
        <mxCell id="2t2oSGuNZaes5AwXjSXp-67" value="YES" style="text;html=1;align=center;verticalAlign=middle;resizable=0;points=[];autosize=1;strokeColor=none;fillColor=none;fontSize=16;" vertex="1" parent="1">
          <mxGeometry x="755" y="851" width="60" height="30" as="geometry" />
        </mxCell>
        <mxCell id="2t2oSGuNZaes5AwXjSXp-68" value="NO" style="text;html=1;align=center;verticalAlign=middle;resizable=0;points=[];autosize=1;strokeColor=none;fillColor=none;fontSize=16;" vertex="1" parent="1">
          <mxGeometry x="515" y="354" width="50" height="30" as="geometry" />
        </mxCell>
        <mxCell id="2t2oSGuNZaes5AwXjSXp-69" value="YES" style="text;html=1;align=center;verticalAlign=middle;resizable=0;points=[];autosize=1;strokeColor=none;fillColor=none;fontSize=16;" vertex="1" parent="1">
          <mxGeometry x="755" y="350" width="60" height="30" as="geometry" />
        </mxCell>
        <mxCell id="2t2oSGuNZaes5AwXjSXp-70" value="NO" style="text;html=1;align=center;verticalAlign=middle;resizable=0;points=[];autosize=1;strokeColor=none;fillColor=none;fontSize=16;" vertex="1" parent="1">
          <mxGeometry x="515" y="640" width="50" height="30" as="geometry" />
        </mxCell>
        <mxCell id="2t2oSGuNZaes5AwXjSXp-71" value="YES" style="text;html=1;align=center;verticalAlign=middle;resizable=0;points=[];autosize=1;strokeColor=none;fillColor=none;fontSize=16;" vertex="1" parent="1">
          <mxGeometry x="685" y="538" width="60" height="30" as="geometry" />
        </mxCell>
        <mxCell id="O7h32KgBPFnIIj5nMblH-10" value="Upload Image" style="rhombus;whiteSpace=wrap;html=1;fontSize=16;" parent="1" vertex="1">
          <mxGeometry x="266.25" y="296.5" width="87.5" height="95" as="geometry" />
        </mxCell>
        <mxCell id="2t2oSGuNZaes5AwXjSXp-87" value="" style="endArrow=none;html=1;rounded=0;fontSize=16;" edge="1" parent="1">
          <mxGeometry width="50" height="50" relative="1" as="geometry">
            <mxPoint x="220" y="880" as="sourcePoint" />
            <mxPoint x="390" y="880" as="targetPoint" />
          </mxGeometry>
        </mxCell>
        <mxCell id="2t2oSGuNZaes5AwXjSXp-88" value="" style="endArrow=classic;html=1;rounded=0;entryX=0.5;entryY=0;entryDx=0;entryDy=0;fontSize=16;" edge="1" parent="1" target="2t2oSGuNZaes5AwXjSXp-1">
          <mxGeometry width="50" height="50" relative="1" as="geometry">
            <mxPoint x="310" y="880" as="sourcePoint" />
            <mxPoint x="450" y="888" as="targetPoint" />
          </mxGeometry>
        </mxCell>
        <mxCell id="2t2oSGuNZaes5AwXjSXp-98" value="" style="endArrow=classic;html=1;rounded=0;entryX=0.5;entryY=1;entryDx=0;entryDy=0;fontSize=16;" edge="1" parent="1" target="2t2oSGuNZaes5AwXjSXp-27">
          <mxGeometry width="50" height="50" relative="1" as="geometry">
            <mxPoint x="675" y="710" as="sourcePoint" />
            <mxPoint x="720" y="660" as="targetPoint" />
          </mxGeometry>
        </mxCell>
        <mxCell id="2t2oSGuNZaes5AwXjSXp-103" style="edgeStyle=elbowEdgeStyle;rounded=0;orthogonalLoop=1;jettySize=auto;html=1;exitX=1;exitY=0;exitDx=0;exitDy=0;entryX=0.692;entryY=0.252;entryDx=0;entryDy=0;entryPerimeter=0;" edge="1" parent="1" source="2t2oSGuNZaes5AwXjSXp-27" target="2t2oSGuNZaes5AwXjSXp-27">
          <mxGeometry relative="1" as="geometry" />
        </mxCell>
      </root>
    </mxGraphModel>
  </diagram>
</mxfile>
